<svg width="32" height="32" viewBox="0 0 32 32" fill="none" xmlns="http://www.w3.org/2000/svg">
<path d="M13.4969 4.96762C14.2284 2.46647 17.7711 2.46657 18.5027 4.96762L20.5877 12.0956L18.6531 12.661L16.5691 5.53305C16.403 4.96555 15.5976 4.96563 15.4314 5.53305L13.5926 11.8211C13.3428 12.6746 12.6755 13.3409 11.8221 13.5907L5.53397 15.4305C4.96691 15.5968 4.96694 16.4009 5.53397 16.5672L11.8221 18.4071C12.6754 18.6568 13.3428 19.3232 13.5926 20.1766L15.4314 26.4647C15.5976 27.0323 16.4031 27.0324 16.5691 26.4647L18.6531 19.3368L20.5877 19.9022L18.5027 27.0301C17.7712 29.5314 14.2283 29.5314 13.4969 27.0301L11.658 20.743C11.6013 20.5495 11.4501 20.3974 11.2566 20.3407L4.96854 18.5018C2.4677 17.7701 2.46766 14.2276 4.96854 13.4959L11.2566 11.6571C11.4501 11.6003 11.6013 11.4482 11.658 11.2547L13.4969 4.96762ZM23.2254 11.3553C23.5817 10.9278 24.2176 10.8693 24.6453 11.2254L29.4451 15.2254C29.6748 15.4169 29.8073 15.7008 29.8074 15.9999C29.8074 16.299 29.6749 16.5837 29.4451 16.7752L24.6453 20.7752C24.2177 21.1313 23.5817 21.0728 23.2254 20.6454C22.8694 20.2178 22.927 19.5818 23.3543 19.2254L26.0154 17.0077H15.9998C15.4432 17.0075 14.992 16.5565 14.992 15.9999C14.9922 15.4434 15.4433 14.9922 15.9998 14.992H26.0154L23.3543 12.7752C22.9269 12.4189 22.8694 11.7829 23.2254 11.3553Z" fill="white"/>
</svg>
