<svg width="32" height="32" viewBox="0 0 32 32" fill="none" xmlns="http://www.w3.org/2000/svg">
<mask id="mask0_804_13765" style="mask-type:alpha" maskUnits="userSpaceOnUse" x="0" y="0" width="32" height="32">
<rect width="32" height="32" fill="#D9D9D9"/>
</mask>
<g mask="url(#mask0_804_13765)">
<path d="M28.6667 8.41033V23.5897C28.6667 24.2632 28.4334 24.8333 27.9667 25.3C27.5 25.7667 26.9299 26 26.2564 26H5.74371C5.07015 26 4.50004 25.7667 4.03337 25.3C3.56671 24.8333 3.33337 24.2632 3.33337 23.5897V8.41033C3.33337 7.73678 3.56671 7.16667 4.03337 6.7C4.50004 6.23333 5.07015 6 5.74371 6H26.2564C26.9299 6 27.5 6.23333 27.9667 6.7C28.4334 7.16667 28.6667 7.73678 28.6667 8.41033ZM5.33337 11.2053H26.6667V8.41033C26.6667 8.30767 26.6239 8.21367 26.5384 8.12833C26.453 8.04278 26.359 8 26.2564 8H5.74371C5.64104 8 5.54704 8.04278 5.46171 8.12833C5.37615 8.21367 5.33337 8.30767 5.33337 8.41033V11.2053ZM5.33337 15.4613V23.5897C5.33337 23.6923 5.37615 23.7863 5.46171 23.8717C5.54704 23.9572 5.64104 24 5.74371 24H26.2564C26.359 24 26.453 23.9572 26.5384 23.8717C26.6239 23.7863 26.6667 23.6923 26.6667 23.5897V15.4613H5.33337Z" fill="white"/>
</g>
</svg>
