<svg width="40" height="40" viewBox="0 0 40 40" fill="none" xmlns="http://www.w3.org/2000/svg">
<rect x="0.5" y="0.5" width="39" height="39" rx="19.5" fill="black"/>
<rect x="0.5" y="0.5" width="39" height="39" rx="19.5" stroke="#EF4444"/>
<mask id="mask0_837_7514" style="mask-type:alpha" maskUnits="userSpaceOnUse" x="10" y="10" width="20" height="20">
<rect x="10" y="10" width="20" height="20" fill="#D9D9D9"/>
</mask>
<g mask="url(#mask0_837_7514)">
<path d="M20 26.6021C19.6562 26.6021 19.362 26.4798 19.1173 26.2351C18.8724 25.9902 18.75 25.6959 18.75 25.3521C18.75 25.0084 18.8724 24.7141 19.1173 24.4694C19.362 24.2246 19.6562 24.1021 20 24.1021C20.3438 24.1021 20.638 24.2246 20.8827 24.4694C21.1276 24.7141 21.25 25.0084 21.25 25.3521C21.25 25.6959 21.1276 25.9902 20.8827 26.2351C20.638 26.4798 20.3438 26.6021 20 26.6021ZM18.8623 22.5157V12.9805H21.1377V22.5157H18.8623Z" fill="#EF4444"/>
</g>
</svg>
