<?xml version="1.0" encoding="UTF-8"?><svg id="Layer_1" xmlns="http://www.w3.org/2000/svg" viewBox="0 0 264 200"><defs><style>.cls-1{fill:#58b992;}.cls-2{fill:#525252;}.cls-3{fill:#6ee7b7;}.cls-4{fill:#428b6e;}.cls-5{fill:#fff;}.cls-6{fill:#a3a3a3;}.cls-7{fill:#424242;}</style></defs><rect class="cls-7" x="112" y="124" width="8" height="36" transform="translate(232 284) rotate(180)"/><rect class="cls-2" x="108" y="124" width="4" height="36" transform="translate(220 284) rotate(180)"/><polygon class="cls-6" points="136 92 136 96 140 96 140 100 144 100 144 104 148 104 148 108 152 108 152 112 156 112 156 116 160 116 160 124 108 124 108 92 136 92"/><polygon class="cls-5" points="108 92 108 124 80 124 80 92 108 92"/><polygon class="cls-4" points="144 192 148 192 152 192 152 188 152 184 152 180 156 180 160 180 160 184 160 188 160 192 164 192 168 192 168 196 172 196 172 200 168 200 164 200 160 200 156 200 152 200 148 200 144 200 140 200 140 196 144 196 144 192"/><polygon class="cls-4" points="92 196 92 192 96 192 100 192 104 192 104 188 104 184 104 180 108 180 112 180 112 184 112 188 112 192 116 192 116 196 120 196 120 200 116 200 112 200 108 200 104 200 100 200 96 200 92 200 88 200 88 196 92 196"/><polygon class="cls-1" points="92 116 92 112 180 112 180 116 184 116 184 176 180 176 180 180 92 180 92 176 88 176 88 116 92 116"/><rect class="cls-3" x="92" y="116" width="56" height="60" transform="translate(240 292) rotate(180)"/><polygon points="128 152 128 168 120 168 120 152 128 152"/><polygon points="108 152 108 168 100 168 100 152 108 152"/><polygon class="cls-4" points="160 144 160 156 168 156 168 168 152 168 152 176 172 176 172 172 176 172 176 156 176 144 160 144"/></svg>