<?xml version="1.0" encoding="UTF-8"?><svg id="Layer_1" xmlns="http://www.w3.org/2000/svg" viewBox="0 0 264 200"><defs><style>.cls-1{fill:#58b992;}.cls-2{fill:#525252;}.cls-3{fill:#6ee7b7;}.cls-4{fill:#428b6e;}.cls-5{fill:#fff;}.cls-6{fill:#a3a3a3;}.cls-7{fill:#424242;}</style></defs><rect class="cls-7" x="104" y="128" width="8" height="36" transform="translate(216 292) rotate(180)"/><rect class="cls-2" x="100" y="128" width="4" height="36" transform="translate(204 292) rotate(180)"/><polygon class="cls-6" points="128 96 128 100 132 100 132 104 136 104 136 108 140 108 140 112 144 112 144 116 148 116 148 120 152 120 152 128 100 128 100 96 128 96"/><polygon class="cls-5" points="100 96 100 128 72 128 72 96 100 96"/><polygon class="cls-4" points="144 192 148 192 152 192 152 188 152 184 156 184 160 184 160 188 160 192 164 192 168 192 168 196 172 196 172 200 168 200 164 200 160 200 156 200 152 200 148 200 144 200 140 200 140 196 144 196 144 192"/><polygon class="cls-4" points="92 196 92 192 96 192 100 192 104 192 104 188 104 184 108 184 112 184 112 188 112 192 116 192 116 196 120 196 120 200 116 200 112 200 108 200 104 200 100 200 96 200 92 200 88 200 88 196 92 196"/><polygon class="cls-1" points="84 120 84 116 172 116 172 120 176 120 176 180 172 180 172 184 84 184 84 180 80 180 80 120 84 120"/><rect class="cls-3" x="84" y="120" width="56" height="60" transform="translate(224 300) rotate(180)"/><polygon points="120 156 120 172 112 172 112 156 120 156"/><polygon points="100 156 100 172 92 172 92 156 100 156"/><polygon class="cls-4" points="152 148 152 160 160 160 160 172 144 172 144 180 164 180 164 176 168 176 168 160 168 148 152 148"/></svg>