<svg width="118" height="24" viewBox="0 0 118 24" fill="none" xmlns="http://www.w3.org/2000/svg">
<rect x="0.5" y="0.5" width="117" height="23" rx="11.5" stroke="white" stroke-opacity="0.4"/>
<mask id="mask0_804_13987" style="mask-type:alpha" maskUnits="userSpaceOnUse" x="6" y="4" width="16" height="16">
<rect x="6" y="4" width="16" height="16" fill="#D9D9D9"/>
</mask>
<g mask="url(#mask0_804_13987)">
<path d="M11.6584 18.1914C10.9306 17.8747 10.2972 17.447 9.75836 16.9081C9.21947 16.3692 8.79169 15.7359 8.47502 15.0081C8.15836 14.2803 8.00002 13.4997 8.00002 12.6664C8.00002 11.8331 8.15836 11.0525 8.47502 10.3247C8.79169 9.59696 9.21947 8.96363 9.75836 8.42474C10.2972 7.88585 10.9306 7.45807 11.6584 7.14141C12.3861 6.82474 13.1667 6.66641 14 6.66641C14.8334 6.66641 15.6139 6.82474 16.3417 7.14141C17.0695 7.45807 17.7028 7.88585 18.2417 8.42474C18.7806 8.96363 19.2084 9.59696 19.525 10.3247C19.8417 11.0525 20 11.8331 20 12.6664C20 13.4997 19.8417 14.2803 19.525 15.0081C19.2084 15.7359 18.7806 16.3692 18.2417 16.9081C17.7028 17.447 17.0695 17.8747 16.3417 18.1914C15.6139 18.5081 14.8334 18.6664 14 18.6664C13.1667 18.6664 12.3861 18.5081 11.6584 18.1914ZM15.8667 15.4664L16.8 14.5331L14.6667 12.3997V9.33307H13.3334V12.9331L15.8667 15.4664ZM9.73336 5.56641L10.6667 6.49974L7.83336 9.33307L6.90002 8.39974L9.73336 5.56641ZM18.2667 5.56641L21.1 8.39974L20.1667 9.33307L17.3334 6.49974L18.2667 5.56641ZM14 17.3331C15.3 17.3331 16.4028 16.8803 17.3084 15.9747C18.2139 15.0692 18.6667 13.9664 18.6667 12.6664C18.6667 11.3664 18.2139 10.2636 17.3084 9.35807C16.4028 8.45252 15.3 7.99974 14 7.99974C12.7 7.99974 11.5972 8.45252 10.6917 9.35807C9.78614 10.2636 9.33336 11.3664 9.33336 12.6664C9.33336 13.9664 9.78614 15.0692 10.6917 15.9747C11.5972 16.8803 12.7 17.3331 14 17.3331Z" fill="#6EE7B7"/>
</g>
<path d="M29.84 17.18C29.236 17.18 28.692 17.08 28.208 16.88C27.728 16.676 27.33 16.388 27.014 16.016C26.702 15.644 26.498 15.202 26.402 14.69L27.302 14.54C27.446 15.1 27.75 15.54 28.214 15.86C28.678 16.176 29.232 16.334 29.876 16.334C30.3 16.334 30.68 16.268 31.016 16.136C31.352 16 31.616 15.808 31.808 15.56C32 15.312 32.096 15.018 32.096 14.678C32.096 14.454 32.056 14.264 31.976 14.108C31.896 13.948 31.79 13.816 31.658 13.712C31.526 13.608 31.382 13.522 31.226 13.454C31.07 13.382 30.918 13.324 30.77 13.28L28.58 12.626C28.316 12.55 28.072 12.454 27.848 12.338C27.624 12.218 27.428 12.076 27.26 11.912C27.096 11.744 26.968 11.548 26.876 11.324C26.784 11.1 26.738 10.844 26.738 10.556C26.738 10.068 26.866 9.646 27.122 9.29C27.378 8.934 27.728 8.66 28.172 8.468C28.616 8.276 29.122 8.182 29.69 8.186C30.266 8.186 30.78 8.288 31.232 8.492C31.688 8.696 32.064 8.988 32.36 9.368C32.656 9.744 32.852 10.19 32.948 10.706L32.024 10.874C31.964 10.498 31.826 10.172 31.61 9.896C31.394 9.62 31.118 9.408 30.782 9.26C30.45 9.108 30.084 9.03 29.684 9.026C29.296 9.026 28.95 9.092 28.646 9.224C28.346 9.352 28.108 9.528 27.932 9.752C27.756 9.976 27.668 10.232 27.668 10.52C27.668 10.812 27.748 11.046 27.908 11.222C28.072 11.398 28.272 11.536 28.508 11.636C28.748 11.736 28.98 11.818 29.204 11.882L30.896 12.38C31.072 12.428 31.278 12.498 31.514 12.59C31.754 12.678 31.986 12.806 32.21 12.974C32.438 13.138 32.626 13.354 32.774 13.622C32.922 13.89 32.996 14.23 32.996 14.642C32.996 15.042 32.916 15.4 32.756 15.716C32.6 16.032 32.378 16.298 32.09 16.514C31.806 16.73 31.472 16.894 31.088 17.006C30.708 17.122 30.292 17.18 29.84 17.18ZM36.9225 17.18C36.2705 17.18 35.7185 17.034 35.2665 16.742C34.8145 16.45 34.4705 16.048 34.2345 15.536C34.0025 15.02 33.8825 14.428 33.8745 13.76C33.8825 13.08 34.0065 12.484 34.2465 11.972C34.4865 11.456 34.8325 11.056 35.2845 10.772C35.7365 10.484 36.2845 10.34 36.9285 10.34C37.5845 10.34 38.1545 10.5 38.6385 10.82C39.1265 11.14 39.4605 11.578 39.6405 12.134L38.7765 12.41C38.6245 12.022 38.3825 11.722 38.0505 11.51C37.7225 11.294 37.3465 11.186 36.9225 11.186C36.4465 11.186 36.0525 11.296 35.7405 11.516C35.4285 11.732 35.1965 12.034 35.0445 12.422C34.8925 12.81 34.8145 13.256 34.8105 13.76C34.8185 14.536 34.9985 15.16 35.3505 15.632C35.7025 16.1 36.2265 16.334 36.9225 16.334C37.3625 16.334 37.7365 16.234 38.0445 16.034C38.3565 15.83 38.5925 15.534 38.7525 15.146L39.6405 15.41C39.4005 15.986 39.0485 16.426 38.5845 16.73C38.1205 17.03 37.5665 17.18 36.9225 17.18ZM45.5591 17V13.694C45.5591 13.334 45.5251 13.004 45.4571 12.704C45.3891 12.4 45.2791 12.136 45.1271 11.912C44.9791 11.684 44.7851 11.508 44.5451 11.384C44.3091 11.26 44.0211 11.198 43.6811 11.198C43.3691 11.198 43.0931 11.252 42.8531 11.36C42.6171 11.468 42.4171 11.624 42.2531 11.828C42.0931 12.028 41.9711 12.272 41.8871 12.56C41.8031 12.848 41.7611 13.176 41.7611 13.544L41.1371 13.406C41.1371 12.742 41.2531 12.184 41.4851 11.732C41.7171 11.28 42.0371 10.938 42.4451 10.706C42.8531 10.474 43.3211 10.358 43.8491 10.358C44.2371 10.358 44.5751 10.418 44.8631 10.538C45.1551 10.658 45.4011 10.82 45.6011 11.024C45.8051 11.228 45.9691 11.462 46.0931 11.726C46.2171 11.986 46.3071 12.264 46.3631 12.56C46.4191 12.852 46.4471 13.144 46.4471 13.436V17H45.5591ZM40.8731 17V8.36H41.6711V13.238H41.7611V17H40.8731ZM50.7461 17.18C50.1141 17.18 49.5661 17.04 49.1021 16.76C48.6421 16.48 48.2841 16.086 48.0281 15.578C47.7721 15.07 47.6441 14.474 47.6441 13.79C47.6441 13.082 47.7701 12.47 48.0221 11.954C48.2741 11.438 48.6281 11.04 49.0841 10.76C49.5441 10.48 50.0861 10.34 50.7101 10.34C51.3501 10.34 51.8961 10.488 52.3481 10.784C52.8001 11.076 53.1421 11.496 53.3741 12.044C53.6061 12.592 53.7121 13.246 53.6921 14.006H52.7921V13.694C52.7761 12.854 52.5941 12.22 52.2461 11.792C51.9021 11.364 51.3981 11.15 50.7341 11.15C50.0381 11.15 49.5041 11.376 49.1321 11.828C48.7641 12.28 48.5801 12.924 48.5801 13.76C48.5801 14.576 48.7641 15.21 49.1321 15.662C49.5041 16.11 50.0301 16.334 50.7101 16.334C51.1741 16.334 51.5781 16.228 51.9221 16.016C52.2701 15.8 52.5441 15.49 52.7441 15.086L53.5661 15.404C53.3101 15.968 52.9321 16.406 52.4321 16.718C51.9361 17.026 51.3741 17.18 50.7461 17.18ZM48.2681 14.006V13.268H53.2181V14.006H48.2681ZM57.5376 17.18C56.9336 17.18 56.4176 17.03 55.9896 16.73C55.5616 16.426 55.2336 16.016 55.0056 15.5C54.7776 14.984 54.6636 14.402 54.6636 13.754C54.6636 13.11 54.7756 12.53 54.9996 12.014C55.2276 11.498 55.5536 11.09 55.9776 10.79C56.4016 10.49 56.9096 10.34 57.5016 10.34C58.1096 10.34 58.6216 10.488 59.0376 10.784C59.4536 11.08 59.7676 11.486 59.9796 12.002C60.1956 12.514 60.3036 13.098 60.3036 13.754C60.3036 14.398 60.1976 14.98 59.9856 15.5C59.7736 16.016 59.4616 16.426 59.0496 16.73C58.6376 17.03 58.1336 17.18 57.5376 17.18ZM57.6276 16.358C58.0876 16.358 58.4676 16.246 58.7676 16.022C59.0676 15.798 59.2916 15.49 59.4396 15.098C59.5876 14.702 59.6616 14.254 59.6616 13.754C59.6616 13.246 59.5876 12.798 59.4396 12.41C59.2916 12.018 59.0676 11.712 58.7676 11.492C58.4716 11.272 58.0976 11.162 57.6456 11.162C57.1816 11.162 56.7976 11.276 56.4936 11.504C56.1896 11.732 55.9636 12.042 55.8156 12.434C55.6716 12.826 55.5996 13.266 55.5996 13.754C55.5996 14.246 55.6736 14.69 55.8216 15.086C55.9736 15.478 56.1996 15.788 56.4996 16.016C56.7996 16.244 57.1756 16.358 57.6276 16.358ZM59.6616 17V12.122H59.5656V8.36H60.4536V17H59.6616ZM64.6149 17.162C64.2269 17.162 63.8869 17.102 63.5949 16.982C63.3069 16.862 63.0609 16.7 62.8569 16.496C62.6569 16.292 62.4949 16.06 62.3709 15.8C62.2469 15.536 62.1569 15.258 62.1009 14.966C62.0449 14.67 62.0169 14.376 62.0169 14.084V10.52H62.9049V13.826C62.9049 14.182 62.9389 14.512 63.0069 14.816C63.0749 15.12 63.1829 15.386 63.3309 15.614C63.4829 15.838 63.6769 16.012 63.9129 16.136C64.1529 16.26 64.4429 16.322 64.7829 16.322C65.0949 16.322 65.3689 16.268 65.6049 16.16C65.8449 16.052 66.0449 15.898 66.2049 15.698C66.3689 15.494 66.4929 15.248 66.5769 14.96C66.6609 14.668 66.7029 14.34 66.7029 13.976L67.3269 14.114C67.3269 14.778 67.2109 15.336 66.9789 15.788C66.7469 16.24 66.4269 16.582 66.0189 16.814C65.6109 17.046 65.1429 17.162 64.6149 17.162ZM66.7929 17V15.404H66.7029V10.52H67.5849V17H66.7929ZM69.3819 17V8.18H70.2639V17H69.3819ZM74.8047 17.18C74.1727 17.18 73.6247 17.04 73.1607 16.76C72.7007 16.48 72.3427 16.086 72.0867 15.578C71.8307 15.07 71.7027 14.474 71.7027 13.79C71.7027 13.082 71.8287 12.47 72.0807 11.954C72.3327 11.438 72.6867 11.04 73.1427 10.76C73.6027 10.48 74.1447 10.34 74.7687 10.34C75.4087 10.34 75.9547 10.488 76.4067 10.784C76.8587 11.076 77.2007 11.496 77.4327 12.044C77.6647 12.592 77.7707 13.246 77.7507 14.006H76.8507V13.694C76.8347 12.854 76.6527 12.22 76.3047 11.792C75.9607 11.364 75.4567 11.15 74.7927 11.15C74.0967 11.15 73.5627 11.376 73.1907 11.828C72.8227 12.28 72.6387 12.924 72.6387 13.76C72.6387 14.576 72.8227 15.21 73.1907 15.662C73.5627 16.11 74.0887 16.334 74.7687 16.334C75.2327 16.334 75.6367 16.228 75.9807 16.016C76.3287 15.8 76.6027 15.49 76.8027 15.086L77.6247 15.404C77.3687 15.968 76.9907 16.406 76.4907 16.718C75.9947 17.026 75.4327 17.18 74.8047 17.18ZM72.3267 14.006V13.268H77.2767V14.006H72.3267ZM81.5962 17.18C80.9922 17.18 80.4762 17.03 80.0482 16.73C79.6202 16.426 79.2922 16.016 79.0642 15.5C78.8362 14.984 78.7222 14.402 78.7222 13.754C78.7222 13.11 78.8342 12.53 79.0582 12.014C79.2862 11.498 79.6122 11.09 80.0362 10.79C80.4602 10.49 80.9682 10.34 81.5602 10.34C82.1682 10.34 82.6802 10.488 83.0962 10.784C83.5122 11.08 83.8262 11.486 84.0382 12.002C84.2542 12.514 84.3622 13.098 84.3622 13.754C84.3622 14.398 84.2562 14.98 84.0442 15.5C83.8322 16.016 83.5202 16.426 83.1082 16.73C82.6962 17.03 82.1922 17.18 81.5962 17.18ZM81.6862 16.358C82.1462 16.358 82.5262 16.246 82.8262 16.022C83.1262 15.798 83.3502 15.49 83.4982 15.098C83.6462 14.702 83.7202 14.254 83.7202 13.754C83.7202 13.246 83.6462 12.798 83.4982 12.41C83.3502 12.018 83.1262 11.712 82.8262 11.492C82.5302 11.272 82.1562 11.162 81.7042 11.162C81.2402 11.162 80.8562 11.276 80.5522 11.504C80.2482 11.732 80.0222 12.042 79.8742 12.434C79.7302 12.826 79.6582 13.266 79.6582 13.754C79.6582 14.246 79.7322 14.69 79.8802 15.086C80.0322 15.478 80.2582 15.788 80.5582 16.016C80.8582 16.244 81.2342 16.358 81.6862 16.358ZM83.7202 17V12.122H83.6242V8.36H84.5122V17H83.7202ZM90.0738 17.174C89.4978 17.174 89.0038 17.014 88.5918 16.694C88.1798 16.374 87.9018 15.946 87.7578 15.41L88.6398 15.2C88.7118 15.516 88.8778 15.784 89.1378 16.004C89.4018 16.22 89.7118 16.328 90.0678 16.328C90.2918 16.328 90.5178 16.274 90.7458 16.166C90.9778 16.058 91.1598 15.88 91.2918 15.632C91.3798 15.46 91.4298 15.274 91.4418 15.074C91.4578 14.87 91.4658 14.626 91.4658 14.342V8.36H92.3538V14.342C92.3538 14.582 92.3518 14.8 92.3478 14.996C92.3438 15.188 92.3218 15.374 92.2818 15.554C92.2458 15.73 92.1758 15.908 92.0718 16.088C91.8638 16.452 91.5838 16.724 91.2318 16.904C90.8838 17.084 90.4978 17.174 90.0738 17.174ZM96.8702 17.18C96.2262 17.18 95.6762 17.034 95.2202 16.742C94.7642 16.45 94.4142 16.046 94.1702 15.53C93.9262 15.014 93.8042 14.422 93.8042 13.754C93.8042 13.074 93.9282 12.478 94.1762 11.966C94.4242 11.454 94.7762 11.056 95.2322 10.772C95.6922 10.484 96.2382 10.34 96.8702 10.34C97.5182 10.34 98.0702 10.486 98.5262 10.778C98.9862 11.066 99.3362 11.468 99.5762 11.984C99.8202 12.496 99.9422 13.086 99.9422 13.754C99.9422 14.434 99.8202 15.032 99.5762 15.548C99.3322 16.06 98.9802 16.46 98.5202 16.748C98.0602 17.036 97.5102 17.18 96.8702 17.18ZM96.8702 16.334C97.5902 16.334 98.1262 16.096 98.4782 15.62C98.8302 15.14 99.0062 14.518 99.0062 13.754C99.0062 12.97 98.8282 12.346 98.4722 11.882C98.1202 11.418 97.5862 11.186 96.8702 11.186C96.3862 11.186 95.9862 11.296 95.6702 11.516C95.3582 11.732 95.1242 12.034 94.9682 12.422C94.8162 12.806 94.7402 13.25 94.7402 13.754C94.7402 14.534 94.9202 15.16 95.2802 15.632C95.6402 16.1 96.1702 16.334 96.8702 16.334ZM104.176 17.18C103.58 17.18 103.076 17.03 102.664 16.73C102.252 16.426 101.94 16.016 101.728 15.5C101.516 14.98 101.41 14.398 101.41 13.754C101.41 13.098 101.516 12.514 101.728 12.002C101.944 11.486 102.26 11.08 102.676 10.784C103.092 10.488 103.604 10.34 104.212 10.34C104.804 10.34 105.312 10.49 105.736 10.79C106.16 11.09 106.484 11.498 106.708 12.014C106.936 12.53 107.05 13.11 107.05 13.754C107.05 14.402 106.936 14.984 106.708 15.5C106.48 16.016 106.152 16.426 105.724 16.73C105.296 17.03 104.78 17.18 104.176 17.18ZM101.26 17V8.36H102.148V12.122H102.052V17H101.26ZM104.086 16.358C104.538 16.358 104.914 16.244 105.214 16.016C105.514 15.788 105.738 15.478 105.886 15.086C106.038 14.69 106.114 14.246 106.114 13.754C106.114 13.266 106.04 12.826 105.892 12.434C105.744 12.042 105.518 11.732 105.214 11.504C104.914 11.276 104.532 11.162 104.068 11.162C103.616 11.162 103.24 11.272 102.94 11.492C102.644 11.712 102.422 12.018 102.274 12.41C102.126 12.798 102.052 13.246 102.052 13.754C102.052 14.254 102.126 14.702 102.274 15.098C102.422 15.49 102.646 15.798 102.946 16.022C103.246 16.246 103.626 16.358 104.086 16.358Z" fill="#A3A3A3"/>
</svg>
