<svg width="121" height="23" viewBox="0 0 121 23" fill="none" xmlns="http://www.w3.org/2000/svg">
<rect x="0.5" y="0.5" width="48" height="22" rx="1.5" stroke="#A3A3A3"/>
<path d="M13.792 16V10.972H11.08V10.168H14.776V16H13.792ZM14.176 8.944C13.952 8.944 13.764 8.876 13.612 8.74C13.46 8.596 13.384 8.408 13.384 8.176C13.384 7.944 13.46 7.76 13.612 7.624C13.764 7.48 13.952 7.408 14.176 7.408C14.4 7.408 14.588 7.48 14.74 7.624C14.892 7.76 14.968 7.944 14.968 8.176C14.968 8.408 14.892 8.596 14.74 8.74C14.588 8.876 14.4 8.944 14.176 8.944ZM21.9233 16.144C21.3553 16.144 20.9073 16.044 20.5793 15.844C20.2513 15.636 20.0153 15.352 19.8713 14.992C19.7353 14.632 19.6673 14.212 19.6673 13.732V10.972H18.0233V10.228L19.7033 10.168L19.8353 8.296H20.6513V10.168H23.5193V10.972H20.6513V13.744C20.6513 14.088 20.6953 14.38 20.7833 14.62C20.8713 14.86 21.0233 15.04 21.2393 15.16C21.4553 15.28 21.7513 15.34 22.1273 15.34C22.4073 15.34 22.6593 15.316 22.8833 15.268C23.1073 15.22 23.3233 15.156 23.5313 15.076L23.7473 15.796C23.4833 15.892 23.2033 15.972 22.9073 16.036C22.6193 16.108 22.2913 16.144 21.9233 16.144ZM28.3506 16.144C27.7666 16.144 27.2346 16.024 26.7546 15.784C26.2826 15.544 25.9066 15.196 25.6266 14.74C25.3466 14.276 25.2066 13.72 25.2066 13.072C25.2066 12.44 25.3466 11.896 25.6266 11.44C25.9066 10.984 26.2706 10.636 26.7186 10.396C27.1746 10.148 27.6626 10.024 28.1826 10.024C28.7426 10.024 29.2186 10.14 29.6106 10.372C30.0106 10.596 30.3146 10.912 30.5226 11.32C30.7386 11.728 30.8466 12.208 30.8466 12.76C30.8466 12.872 30.8426 12.98 30.8346 13.084C30.8266 13.188 30.8146 13.28 30.7986 13.36H25.8666V12.592H30.2106L29.9586 12.868C29.9586 12.18 29.7986 11.664 29.4786 11.32C29.1666 10.976 28.7426 10.804 28.2066 10.804C27.8466 10.804 27.5106 10.892 27.1986 11.068C26.8946 11.244 26.6506 11.5 26.4666 11.836C26.2826 12.172 26.1906 12.584 26.1906 13.072C26.1906 13.576 26.2906 13.996 26.4906 14.332C26.6906 14.668 26.9626 14.924 27.3066 15.1C27.6506 15.268 28.0386 15.352 28.4706 15.352C28.8226 15.352 29.1386 15.304 29.4186 15.208C29.7066 15.104 29.9826 14.968 30.2466 14.8L30.6066 15.448C30.3186 15.64 29.9866 15.804 29.6106 15.94C29.2426 16.076 28.8226 16.144 28.3506 16.144ZM32.2819 16V10.168H33.0739L33.1579 10.936H33.1819C33.3339 10.664 33.5099 10.444 33.7099 10.276C33.9099 10.108 34.1779 10.024 34.5139 10.024C34.8019 10.024 35.0379 10.108 35.2219 10.276C35.4059 10.444 35.5379 10.696 35.6179 11.032C35.7859 10.72 35.9699 10.476 36.1699 10.3C36.3779 10.116 36.6499 10.024 36.9859 10.024C37.3939 10.024 37.7099 10.18 37.9339 10.492C38.1659 10.796 38.2819 11.24 38.2819 11.824V16H37.2979V11.896C37.2979 11.216 37.0899 10.876 36.6739 10.876C36.4739 10.876 36.3059 10.952 36.1699 11.104C36.0419 11.248 35.8979 11.472 35.7379 11.776V16H34.8259V11.896C34.8259 11.56 34.7779 11.308 34.6819 11.14C34.5939 10.964 34.4419 10.876 34.2259 10.876C34.0259 10.876 33.8499 10.952 33.6979 11.104C33.5539 11.248 33.4099 11.472 33.2659 11.776V16H32.2819Z" fill="#A3A3A3"/>
<line x1="49" y1="11" x2="65" y2="11" stroke="#A3A3A3" stroke-dasharray="2 2"/>
<rect x="65.5" y="0.5" width="55" height="22" rx="1.5" stroke="#A3A3A3"/>
<path d="M76.116 18.46V10.168H76.932L77.016 10.912H77.052C77.324 10.656 77.636 10.444 77.988 10.276C78.348 10.108 78.708 10.024 79.068 10.024C79.596 10.024 80.036 10.148 80.388 10.396C80.748 10.636 81.02 10.98 81.204 11.428C81.388 11.868 81.48 12.392 81.48 13C81.48 13.656 81.356 14.22 81.108 14.692C80.86 15.164 80.536 15.524 80.136 15.772C79.736 16.02 79.3 16.144 78.828 16.144C78.564 16.144 78.272 16.08 77.952 15.952C77.64 15.816 77.352 15.628 77.088 15.388H77.052L77.1 16.492V18.46H76.116ZM78.66 15.316C79.004 15.316 79.312 15.224 79.584 15.04C79.856 14.856 80.068 14.592 80.22 14.248C80.38 13.896 80.46 13.48 80.46 13C80.46 12.576 80.404 12.204 80.292 11.884C80.18 11.556 80.004 11.304 79.764 11.128C79.524 10.944 79.208 10.852 78.816 10.852C78.552 10.852 78.272 10.924 77.976 11.068C77.688 11.204 77.396 11.424 77.1 11.728V14.632C77.38 14.88 77.66 15.056 77.94 15.16C78.228 15.264 78.468 15.316 78.66 15.316ZM83.9473 16V10.168H84.7633L84.8473 11.548H84.8833C85.1873 11.076 85.5633 10.704 86.0113 10.432C86.4593 10.16 86.9513 10.024 87.4873 10.024C87.7033 10.024 87.9033 10.044 88.0873 10.084C88.2793 10.116 88.4633 10.176 88.6393 10.264L88.4113 11.116C88.2113 11.044 88.0393 10.992 87.8953 10.96C87.7513 10.928 87.5633 10.912 87.3313 10.912C86.8913 10.912 86.4673 11.04 86.0593 11.296C85.6593 11.544 85.2833 11.972 84.9313 12.58V16H83.9473ZM93.1826 16V10.972H90.4706V10.168H94.1666V16H93.1826ZM93.5666 8.944C93.3426 8.944 93.1546 8.876 93.0026 8.74C92.8506 8.596 92.7746 8.408 92.7746 8.176C92.7746 7.944 92.8506 7.76 93.0026 7.624C93.1546 7.48 93.3426 7.408 93.5666 7.408C93.7906 7.408 93.9786 7.48 94.1306 7.624C94.2826 7.76 94.3586 7.944 94.3586 8.176C94.3586 8.408 94.2826 8.596 94.1306 8.74C93.9786 8.876 93.7906 8.944 93.5666 8.944ZM100.738 16.144C100.13 16.144 99.5819 16.024 99.0939 15.784C98.6139 15.544 98.2339 15.196 97.9539 14.74C97.6819 14.284 97.5459 13.736 97.5459 13.096C97.5459 12.44 97.6939 11.884 97.9899 11.428C98.2859 10.972 98.6779 10.624 99.1659 10.384C99.6619 10.144 100.206 10.024 100.798 10.024C101.278 10.024 101.69 10.108 102.034 10.276C102.386 10.444 102.682 10.644 102.922 10.876L102.43 11.512C102.19 11.304 101.942 11.14 101.686 11.02C101.43 10.9 101.146 10.84 100.834 10.84C100.386 10.84 99.9899 10.936 99.6459 11.128C99.3019 11.312 99.0339 11.576 98.8419 11.92C98.6579 12.256 98.5659 12.648 98.5659 13.096C98.5659 13.536 98.6579 13.924 98.8419 14.26C99.0259 14.596 99.2859 14.86 99.6219 15.052C99.9659 15.236 100.362 15.328 100.81 15.328C101.17 15.328 101.498 15.256 101.794 15.112C102.098 14.968 102.37 14.796 102.61 14.596L103.054 15.232C102.734 15.52 102.374 15.744 101.974 15.904C101.582 16.064 101.17 16.144 100.738 16.144ZM107.741 16.144C107.157 16.144 106.625 16.024 106.145 15.784C105.673 15.544 105.297 15.196 105.017 14.74C104.737 14.276 104.597 13.72 104.597 13.072C104.597 12.44 104.737 11.896 105.017 11.44C105.297 10.984 105.661 10.636 106.109 10.396C106.565 10.148 107.053 10.024 107.573 10.024C108.133 10.024 108.609 10.14 109.001 10.372C109.401 10.596 109.705 10.912 109.913 11.32C110.129 11.728 110.237 12.208 110.237 12.76C110.237 12.872 110.233 12.98 110.225 13.084C110.217 13.188 110.205 13.28 110.189 13.36H105.257V12.592H109.601L109.349 12.868C109.349 12.18 109.189 11.664 108.869 11.32C108.557 10.976 108.133 10.804 107.597 10.804C107.237 10.804 106.901 10.892 106.589 11.068C106.285 11.244 106.041 11.5 105.857 11.836C105.673 12.172 105.581 12.584 105.581 13.072C105.581 13.576 105.681 13.996 105.881 14.332C106.081 14.668 106.353 14.924 106.697 15.1C107.041 15.268 107.429 15.352 107.861 15.352C108.213 15.352 108.529 15.304 108.809 15.208C109.097 15.104 109.373 14.968 109.637 14.8L109.997 15.448C109.709 15.64 109.377 15.804 109.001 15.94C108.633 16.076 108.213 16.144 107.741 16.144Z" fill="#A3A3A3"/>
</svg>
