<svg width="80" height="24" viewBox="0 0 80 24" fill="none" xmlns="http://www.w3.org/2000/svg">
<path fill-rule="evenodd" clip-rule="evenodd" d="M14.0465 16.0584C14.4802 15.8786 14.5135 15.277 14.1023 15.0505L1.14523 7.91218C0.713838 7.67452 0.207807 8.06931 0.333389 8.54555L4.11055 22.8696C4.23047 23.3243 4.8236 23.4377 5.10282 23.0593L8.51053 18.4405C8.57099 18.3585 8.65265 18.2946 8.74673 18.2556L14.0465 16.0584Z" fill="#6EE7B7"/>
<rect x="9.24147" y="0.280043" width="24.0837" height="10.6416" rx="5.32082" stroke="#6EE7B7" stroke-width="0.560086"/>
<path d="M14.9165 8.10156V4.02189H13.3505V3.26242H17.2924V4.02189H15.7264V8.10156H14.9165ZM18.8945 8.20238C18.5316 8.20238 18.2146 8.12061 17.9435 7.95706C17.6724 7.79351 17.4618 7.56836 17.3117 7.2816C17.1638 6.99259 17.0899 6.66102 17.0899 6.28688C17.0899 5.90602 17.1661 5.57221 17.3184 5.28545C17.4708 4.99868 17.6825 4.77465 17.9536 4.61334C18.2246 4.45204 18.5383 4.37139 18.8945 4.37139C19.2597 4.37139 19.5778 4.45316 19.8489 4.6167C20.12 4.78025 20.3306 5.00653 20.4807 5.29553C20.6308 5.58229 20.7058 5.91274 20.7058 6.28688C20.7058 6.66326 20.6296 6.99595 20.4773 7.28496C20.3272 7.57172 20.1166 7.79688 19.8455 7.96042C19.5744 8.12173 19.2574 8.20238 18.8945 8.20238ZM18.8945 7.4429C19.2171 7.4429 19.4568 7.33536 19.6136 7.12029C19.7705 6.90522 19.8489 6.62742 19.8489 6.28688C19.8489 5.93515 19.7694 5.65511 19.6103 5.44675C19.4512 5.23616 19.2126 5.13086 18.8945 5.13086C18.6772 5.13086 18.498 5.18015 18.3568 5.27873C18.2179 5.37506 18.1149 5.5106 18.0476 5.68535C17.9804 5.85786 17.9468 6.05837 17.9468 6.28688C17.9468 6.63862 18.0264 6.91978 18.1854 7.13037C18.3467 7.33872 18.5831 7.4429 18.8945 7.4429ZM23.9565 8.10156V6.35409C23.9565 6.23984 23.9487 6.11326 23.933 5.97435C23.9173 5.83545 23.8804 5.70215 23.8221 5.57445C23.7661 5.44451 23.681 5.3381 23.5667 5.2552C23.4547 5.17231 23.3024 5.13086 23.1097 5.13086C23.0066 5.13086 22.9047 5.14767 22.8039 5.18127C22.7031 5.21488 22.6112 5.27313 22.5283 5.35602C22.4477 5.43667 22.3827 5.54869 22.3334 5.69207C22.2841 5.83321 22.2595 6.01468 22.2595 6.23647L21.7789 6.03148C21.7789 5.72232 21.8383 5.44227 21.957 5.19135C22.078 4.94043 22.255 4.74104 22.488 4.59318C22.721 4.44308 23.0078 4.36803 23.3483 4.36803C23.6171 4.36803 23.8389 4.41283 24.0137 4.50245C24.1884 4.59206 24.3273 4.70632 24.4304 4.84522C24.5334 4.98412 24.6096 5.13198 24.6589 5.28881C24.7082 5.44563 24.7395 5.59462 24.753 5.73576C24.7687 5.87466 24.7765 5.9878 24.7765 6.07517V8.10156H23.9565ZM21.4395 8.10156V4.4722H22.162V5.59798H22.2595V8.10156H21.4395ZM25.9994 9.71461L26.6984 7.79576L26.7118 8.36032L25.129 4.4722H25.9725L27.0949 7.34881H26.8798L27.972 4.4722H28.7819L26.7588 9.71461H25.9994Z" fill="#6EE7B7"/>
<path fill-rule="evenodd" clip-rule="evenodd" d="M59.6517 16.0584C60.0854 15.8786 60.1187 15.277 59.7075 15.0505L46.7504 7.91218C46.319 7.67452 45.813 8.06931 45.9386 8.54555L49.7157 22.8696C49.8356 23.3243 50.4288 23.4377 50.708 23.0593L54.1157 18.4405C54.1762 18.3585 54.2578 18.2946 54.3519 18.2556L59.6517 16.0584Z" fill="#818CF8"/>
<rect x="54.8466" y="0.280043" width="24.0837" height="10.6416" rx="5.32082" stroke="#818CF8" stroke-width="0.560086"/>
<path d="M61.4262 8.10156V3.26242H62.2361V7.34209H64.3733V8.10156H61.4262ZM66.5927 8.20238C66.2252 8.20238 65.9026 8.12285 65.6248 7.96378C65.347 7.80472 65.1297 7.58404 64.9729 7.30176C64.8183 7.01948 64.741 6.69463 64.741 6.32721C64.741 5.93067 64.8172 5.58677 64.9695 5.29553C65.1219 5.00204 65.3336 4.77465 65.6047 4.61334C65.8757 4.45204 66.1894 4.37139 66.5456 4.37139C66.922 4.37139 67.2412 4.45988 67.5034 4.63687C67.7677 4.81161 67.9637 5.05917 68.0914 5.37954C68.2191 5.69991 68.2673 6.07741 68.2359 6.51204H67.4328V6.21631C67.4305 5.82201 67.3611 5.53413 67.2244 5.35266C67.0878 5.17119 66.8727 5.08046 66.5792 5.08046C66.2476 5.08046 66.0012 5.18351 65.8399 5.38962C65.6786 5.5935 65.5979 5.89258 65.5979 6.28688C65.5979 6.6543 65.6786 6.93882 65.8399 7.14045C66.0012 7.34209 66.2364 7.4429 66.5456 7.4429C66.745 7.4429 66.9164 7.39921 67.0598 7.31184C67.2054 7.22223 67.3174 7.09341 67.3958 6.92538L68.1956 7.16734C68.0567 7.49443 67.8416 7.74871 67.5504 7.93018C67.2614 8.11164 66.9421 8.20238 66.5927 8.20238ZM65.3425 6.51204V5.90042H67.8394V6.51204H65.3425ZM70.5887 8.20238C70.2258 8.20238 69.9088 8.12061 69.6377 7.95706C69.3666 7.79351 69.156 7.56836 69.0059 7.2816C68.8581 6.99259 68.7841 6.66102 68.7841 6.28688C68.7841 5.90602 68.8603 5.57221 69.0126 5.28545C69.165 4.99868 69.3767 4.77465 69.6478 4.61334C69.9189 4.45204 70.2325 4.37139 70.5887 4.37139C70.9539 4.37139 71.272 4.45316 71.5431 4.6167C71.8142 4.78025 72.0248 5.00653 72.1749 5.29553C72.325 5.58229 72.4 5.91274 72.4 6.28688C72.4 6.66326 72.3239 6.99595 72.1715 7.28496C72.0214 7.57172 71.8108 7.79688 71.5398 7.96042C71.2687 8.12173 70.9517 8.20238 70.5887 8.20238ZM70.5887 7.4429C70.9113 7.4429 71.1511 7.33536 71.3079 7.12029C71.4647 6.90522 71.5431 6.62742 71.5431 6.28688C71.5431 5.93515 71.4636 5.65511 71.3045 5.44675C71.1455 5.23616 70.9069 5.13086 70.5887 5.13086C70.3714 5.13086 70.1922 5.18015 70.051 5.27873C69.9121 5.37506 69.8091 5.5106 69.7419 5.68535C69.6747 5.85786 69.6411 6.05837 69.6411 6.28688C69.6411 6.63862 69.7206 6.91978 69.8797 7.13037C70.041 7.33872 70.2773 7.4429 70.5887 7.4429Z" fill="#818CF8"/>
</svg>
