<svg width="28" height="26" viewBox="0 0 28 26" fill="none" xmlns="http://www.w3.org/2000/svg">
<path d="M26.3536 22.3536C26.5488 22.1583 26.5488 21.8417 26.3536 21.6464L23.1716 18.4645C22.9763 18.2692 22.6597 18.2692 22.4645 18.4645C22.2692 18.6597 22.2692 18.9763 22.4645 19.1716L25.2929 22L22.4645 24.8284C22.2692 25.0237 22.2692 25.3403 22.4645 25.5355C22.6597 25.7308 22.9763 25.7308 23.1716 25.5355L26.3536 22.3536ZM6 22H5.5V22.5H6V22ZM6.35355 1.64645C6.15829 1.45118 5.84171 1.45118 5.64645 1.64645L2.46447 4.82843C2.2692 5.02369 2.2692 5.34027 2.46447 5.53553C2.65973 5.7308 2.97631 5.7308 3.17157 5.53553L6 2.70711L8.82843 5.53553C9.02369 5.7308 9.34027 5.7308 9.53553 5.53553C9.7308 5.34027 9.7308 5.02369 9.53553 4.82843L6.35355 1.64645ZM26 22V21.5H6V22V22.5H26V22ZM6 22H6.5V2H6H5.5V22H6Z" fill="#A3A3A3"/>
<path d="M6.5 21.5L18 10" stroke="#A3A3A3"/>
</svg>
