<svg width="32" height="32" viewBox="0 0 32 32" fill="none" xmlns="http://www.w3.org/2000/svg">
<g clip-path="url(#clip0_948_21775)">
<ellipse cx="15.9999" cy="16.0007" rx="12.4443" ry="12.4441" fill="white"/>
<path d="M10.7804 0.612131C12.0649 0.083635 13.4634 -0.107307 14.8426 0.0574793C16.6203 0.261918 18.2043 1.01745 19.5945 2.32408C19.6123 2.34186 19.6372 2.35431 19.6603 2.36142C19.6854 2.36759 19.7117 2.36759 19.7368 2.36142C21.5441 1.89469 23.4573 2.06741 25.1518 2.85029L25.2354 2.8894L25.4416 2.99073C27.2154 3.88975 28.599 5.4067 29.3313 7.25551C29.7029 8.16215 29.8878 9.10612 29.8913 10.091C29.9181 10.8234 29.8378 11.5559 29.6531 12.2651C29.644 12.301 29.6441 12.3385 29.6535 12.3742C29.6628 12.41 29.681 12.4428 29.7064 12.4696C30.7624 13.5487 31.4629 14.834 31.8095 16.3273C32.3233 18.8605 31.7971 21.1449 30.2327 23.1786L29.9909 23.4737C28.9548 24.6598 27.5948 25.5174 26.078 25.9412C26.0451 25.9509 26.0149 25.9681 25.9899 25.9916C25.9649 26.0151 25.9458 26.0441 25.934 26.0763C25.5945 27.0559 25.2532 27.8949 24.6185 28.7323C23.0185 30.8424 20.6683 32.0139 18.0212 31.9997C15.911 31.9891 14.0408 31.2175 12.4088 29.6851C12.3843 29.6621 12.354 29.6461 12.3212 29.6386C12.2885 29.6311 12.2543 29.6324 12.2222 29.6425C11.5324 29.8647 10.8355 29.8967 10.0817 29.8878C8.88115 29.8781 7.69858 29.5948 6.62398 29.0594C5.49835 28.5016 4.51833 27.689 3.76178 26.6861C3.49156 26.327 3.22312 25.9892 3.02579 25.5892C2.7564 25.0404 2.53628 24.4686 2.36802 23.8808C2.01282 22.5433 2.00426 21.1374 2.34313 19.7956C2.35427 19.7637 2.35792 19.7296 2.3538 19.6961C2.34771 19.6631 2.33082 19.6331 2.3058 19.6107C1.48459 18.7795 0.856933 17.7774 0.46759 16.6757C0.20866 15.9971 0.0580803 15.282 0.0213715 14.5566C-0.043213 13.6013 0.0413548 12.6416 0.272036 11.7123C0.871142 9.73544 2.0178 8.18348 3.70845 7.05818C4.08534 6.80752 4.44267 6.61197 4.77689 6.47153C5.15911 6.31331 5.54132 6.17998 5.92532 6.06798C5.95276 6.05947 5.97768 6.0443 5.99784 6.02383C6.018 6.00336 6.03278 5.97822 6.04088 5.95065C6.33245 4.90364 6.83386 3.92685 7.51464 3.07962C8.37283 1.98989 9.49766 1.14 10.7804 0.612131ZM16.9706 19.3938C16.6817 19.4101 16.4099 19.5362 16.2111 19.7465C16.0123 19.9567 15.9016 20.2351 15.9016 20.5245C15.9016 20.8138 16.0123 21.0922 16.2111 21.3025C16.4099 21.5127 16.6817 21.6389 16.9706 21.6551H23.4345C23.5883 21.6637 23.7423 21.6409 23.887 21.588C24.0316 21.5351 24.164 21.4532 24.2759 21.3473C24.3879 21.2415 24.4771 21.1139 24.538 20.9724C24.5989 20.831 24.6304 20.6785 24.6304 20.5245C24.6304 20.3704 24.5989 20.218 24.538 20.0765C24.4771 19.935 24.3879 19.8075 24.2759 19.7016C24.164 19.5958 24.0316 19.5139 23.887 19.461C23.7423 19.4081 23.5883 19.3852 23.4345 19.3938H16.9706ZM9.71018 11.0758C9.55633 10.8253 9.31106 10.6444 9.02623 10.5714C8.74139 10.4984 8.43934 10.5391 8.18395 10.6848C7.92856 10.8305 7.73985 11.0698 7.65774 11.3521C7.57563 11.6345 7.60655 11.9377 7.74397 12.1976L10.0053 16.1513L7.75464 19.9485C7.67888 20.0763 7.62904 20.2178 7.60796 20.3649C7.58689 20.512 7.59499 20.6617 7.6318 20.8057C7.66861 20.9496 7.73342 21.0849 7.82252 21.2038C7.91162 21.3227 8.02326 21.4229 8.15108 21.4987C8.2789 21.5744 8.42039 21.6243 8.56747 21.6453C8.71455 21.6664 8.86434 21.6583 9.00829 21.6215C9.15224 21.5847 9.28753 21.5199 9.40644 21.4308C9.52534 21.3417 9.62553 21.2301 9.70129 21.1022L12.2862 16.7379C12.3881 16.566 12.4426 16.3701 12.4441 16.1702C12.4457 15.9704 12.3943 15.7737 12.295 15.6002L9.71018 11.0758Z" fill="url(#paint0_linear_948_21775)"/>
</g>
<defs>
<linearGradient id="paint0_linear_948_21775" x1="15.9999" y1="0.00059197" x2="15.9999" y2="31.9997" gradientUnits="userSpaceOnUse">
<stop stop-color="#B1A7FF"/>
<stop offset="0.5" stop-color="#7A9DFF"/>
<stop offset="1" stop-color="#3941FF"/>
</linearGradient>
<clipPath id="clip0_948_21775">
<rect width="32" height="32" fill="white"/>
</clipPath>
</defs>
</svg>
